<svg width="500" height="601" viewBox="0 0 500 601" fill="none" xmlns="http://www.w3.org/2000/svg">
<g id="Frame 1">
<g id="bg-general">
<path d="M50 301H450V541C450 546.523 445.523 551 440 551H60C54.4771 551 50 546.523 50 541V301Z" fill="#F8F4FF"/>
<path d="M50 301H450H50ZM451 541C451 547.075 446.075 552 440 552H60C53.9249 552 49 547.075 49 541H51C51 545.971 55.0294 550 60 550H440C444.971 550 449 545.971 449 541H451ZM60 552C53.9249 552 49 547.075 49 541V301H51V541C51 545.971 55.0294 550 60 550V552ZM451 301V541C451 547.075 446.075 552 440 552V550C444.971 550 449 545.971 449 541V301H451Z" fill="black"/>
</g>
<g id="bg-vip">
<path d="M50 61C50 55.4772 54.4772 51 60 51H440C445.523 51 450 55.4772 450 61V301H50V61Z" fill="#AA9BC5"/>
<path d="M49 61C49 54.9249 53.9249 50 60 50H440C446.075 50 451 54.9249 451 61H449C449 56.0294 444.971 52 440 52H60C55.0294 52 51 56.0294 51 61H49ZM450 301H50H450ZM49 301V61C49 54.9249 53.9249 50 60 50V52C55.0294 52 51 56.0294 51 61V301H49ZM440 50C446.075 50 451 54.9249 451 61V301H449V61C449 56.0294 444.971 52 440 52V50Z" fill="black"/>
</g>
<path id="texto-general" d="M206.785 457.384C205.585 457.384 204.513 457.056 203.569 456.4C202.641 455.728 201.905 454.736 201.361 453.424C200.817 452.096 200.545 450.456 200.545 448.504C200.545 446.664 200.793 445.08 201.289 443.752C201.801 442.424 202.529 441.4 203.473 440.68C204.417 439.944 205.553 439.576 206.881 439.576C207.921 439.576 208.841 439.808 209.641 440.272C210.457 440.736 211.137 441.384 211.681 442.216C212.225 443.032 212.617 443.976 212.857 445.048L210.697 445.192C210.425 444.136 209.969 443.272 209.329 442.6C208.705 441.928 207.889 441.592 206.881 441.592C206.001 441.592 205.249 441.864 204.625 442.408C204.001 442.936 203.521 443.72 203.185 444.76C202.865 445.784 202.705 447.032 202.705 448.504C202.705 449.96 202.873 451.2 203.209 452.224C203.545 453.248 204.025 454.032 204.649 454.576C205.289 455.104 206.065 455.368 206.977 455.368C207.793 455.368 208.489 455.16 209.065 454.744C209.657 454.312 210.121 453.72 210.457 452.968C210.793 452.2 210.977 451.328 211.009 450.352H206.929V448.384H212.929V457H211.009L210.913 452.968L211.489 453.16C211.265 453.976 210.953 454.704 210.553 455.344C210.169 455.984 209.665 456.488 209.041 456.856C208.433 457.208 207.681 457.384 206.785 457.384ZM216.183 457V439.96H226.551V441.976H218.247V447.472H226.263V449.44H218.247V454.984H226.743V457H216.183ZM230.094 457V439.96H233.022L239.07 454.648V439.96H241.134V457H238.206L232.158 442.312V457H230.094ZM244.965 457V439.96H255.333V441.976H247.029V447.472H255.045V449.44H247.029V454.984H255.525V457H244.965ZM258.875 457V439.96H264.059C265.851 439.96 267.267 440.416 268.307 441.328C269.347 442.224 269.867 443.464 269.867 445.048C269.867 445.848 269.683 446.56 269.315 447.184C268.947 447.792 268.475 448.272 267.899 448.624C267.323 448.976 266.731 449.176 266.123 449.224L266.027 448.936C267.163 449 268.011 449.272 268.571 449.752C269.147 450.232 269.483 451.016 269.579 452.104L270.011 457H267.947L267.539 452.368C267.491 451.84 267.363 451.416 267.155 451.096C266.963 450.76 266.651 450.52 266.219 450.376C265.803 450.216 265.227 450.136 264.491 450.136H260.939V457H258.875ZM260.939 448.12H264.059C265.243 448.12 266.147 447.856 266.771 447.328C267.395 446.784 267.707 446.024 267.707 445.048C267.707 444.056 267.395 443.296 266.771 442.768C266.147 442.24 265.243 441.976 264.059 441.976H260.939V448.12ZM272.21 457L277.394 439.96H280.178L285.362 457H283.154L278.786 441.832L274.418 457H272.21ZM274.826 452.152L275.546 450.136H282.026L282.746 452.152H274.826ZM288.377 457V439.96H290.441V456.04L289.409 454.984H298.937V457H288.377Z" fill="black"/>
<path id="texto-vip" d="M234.27 225L229.134 207.96H231.342L235.902 223.656H235.326L239.886 207.96H242.094L236.958 225H234.27ZM244.725 225V222.984H248.973V209.976H244.725V207.96H255.285V209.976H251.037V222.984H255.285V225H244.725ZM259.355 225V207.96H264.539C265.723 207.96 266.755 208.168 267.635 208.584C268.515 209 269.195 209.6 269.675 210.384C270.155 211.152 270.395 212.08 270.395 213.168C270.395 214.256 270.155 215.192 269.675 215.976C269.195 216.744 268.515 217.336 267.635 217.752C266.755 218.168 265.723 218.376 264.539 218.376H261.419V225H259.355ZM261.419 216.36H264.299C265.643 216.36 266.635 216.088 267.275 215.544C267.915 214.984 268.235 214.192 268.235 213.168C268.235 212.128 267.915 211.336 267.275 210.792C266.635 210.248 265.643 209.976 264.299 209.976H261.419V216.36Z" fill="black"/>
<g id="bg-escenario">
<path d="M125 26C125 12.1929 136.193 1 150 1H350C363.807 1 375 12.1929 375 26V101H125V26Z" fill="#353535"/>
<path d="M124 26C124 11.6406 135.641 0 150 0H350C364.359 0 376 11.6406 376 26H374C374 12.7452 363.255 2 350 2H150C136.745 2 126 12.7452 126 26H124ZM375 101H125H375ZM124 101V26C124 11.6406 135.641 0 150 0V2C136.745 2 126 12.7452 126 26V101H124ZM350 0C364.359 0 376 11.6406 376 26V101H374V26C374 12.7452 363.255 2 350 2V0Z" fill="black"/>
</g>
<path id="texto-escenario" d="M187.402 85V67.96H197.77V69.976H189.466V75.472H197.482V77.44H189.466V82.984H197.962V85H187.402ZM207.097 85.384C205.897 85.384 204.833 85.136 203.905 84.64C202.977 84.144 202.233 83.464 201.673 82.6C201.113 81.72 200.785 80.704 200.689 79.552L202.849 79.408C202.961 80.256 203.201 80.976 203.569 81.568C203.953 82.16 204.441 82.608 205.033 82.912C205.641 83.216 206.345 83.368 207.145 83.368C207.945 83.368 208.617 83.272 209.161 83.08C209.705 82.872 210.113 82.576 210.385 82.192C210.673 81.792 210.817 81.32 210.817 80.776C210.817 80.232 210.689 79.76 210.433 79.36C210.193 78.944 209.729 78.56 209.041 78.208C208.369 77.856 207.369 77.496 206.041 77.128C204.857 76.792 203.897 76.424 203.161 76.024C202.441 75.624 201.913 75.136 201.577 74.56C201.257 73.984 201.097 73.272 201.097 72.424C201.097 71.464 201.321 70.624 201.769 69.904C202.233 69.168 202.889 68.6 203.737 68.2C204.585 67.784 205.593 67.576 206.761 67.576C207.929 67.576 208.929 67.816 209.761 68.296C210.593 68.76 211.249 69.4 211.729 70.216C212.225 71.032 212.537 71.96 212.665 73L210.505 73.144C210.409 72.456 210.209 71.848 209.905 71.32C209.601 70.776 209.185 70.352 208.657 70.048C208.129 69.744 207.481 69.592 206.713 69.592C205.657 69.592 204.817 69.848 204.193 70.36C203.569 70.856 203.257 71.512 203.257 72.328C203.257 72.856 203.369 73.296 203.593 73.648C203.833 73.984 204.249 74.288 204.841 74.56C205.433 74.816 206.265 75.096 207.337 75.4C208.729 75.784 209.833 76.216 210.649 76.696C211.481 77.176 212.073 77.752 212.425 78.424C212.793 79.08 212.977 79.88 212.977 80.824C212.977 81.72 212.729 82.512 212.233 83.2C211.737 83.888 211.049 84.424 210.169 84.808C209.289 85.192 208.265 85.384 207.097 85.384ZM221.271 85.384C219.911 85.384 218.759 85.024 217.815 84.304C216.871 83.584 216.151 82.56 215.655 81.232C215.175 79.904 214.935 78.328 214.935 76.504C214.935 74.664 215.175 73.08 215.655 71.752C216.151 70.424 216.871 69.4 217.815 68.68C218.759 67.944 219.911 67.576 221.271 67.576C222.775 67.576 224.055 68.072 225.111 69.064C226.167 70.04 226.871 71.408 227.223 73.168L225.015 73.312C224.743 72.08 224.271 71.152 223.599 70.528C222.943 69.904 222.167 69.592 221.271 69.592C220.359 69.592 219.591 69.864 218.967 70.408C218.359 70.936 217.895 71.72 217.575 72.76C217.255 73.784 217.095 75.032 217.095 76.504C217.095 77.96 217.255 79.2 217.575 80.224C217.895 81.248 218.359 82.032 218.967 82.576C219.591 83.104 220.359 83.368 221.271 83.368C222.263 83.368 223.103 83.024 223.791 82.336C224.479 81.648 224.943 80.624 225.183 79.264L227.367 79.384C227.063 81.256 226.375 82.728 225.303 83.8C224.231 84.856 222.887 85.384 221.271 85.384ZM230.574 85V67.96H240.942V69.976H232.638V75.472H240.654V77.44H232.638V82.984H241.134V85H230.574ZM244.485 85V67.96H247.413L253.461 82.648V67.96H255.525V85H252.597L246.549 70.312V85H244.485ZM257.819 85L263.003 67.96H265.787L270.971 85H268.763L264.395 69.832L260.027 85H257.819ZM260.435 80.152L261.155 78.136H267.635L268.355 80.152H260.435ZM273.266 85V67.96H278.45C280.242 67.96 281.658 68.416 282.698 69.328C283.738 70.224 284.258 71.464 284.258 73.048C284.258 73.848 284.074 74.56 283.706 75.184C283.338 75.792 282.866 76.272 282.29 76.624C281.714 76.976 281.122 77.176 280.514 77.224L280.418 76.936C281.554 77 282.402 77.272 282.962 77.752C283.538 78.232 283.874 79.016 283.97 80.104L284.402 85H282.338L281.93 80.368C281.882 79.84 281.754 79.416 281.546 79.096C281.354 78.76 281.042 78.52 280.61 78.376C280.194 78.216 279.618 78.136 278.882 78.136H275.33V85H273.266ZM275.33 76.12H278.45C279.634 76.12 280.538 75.856 281.162 75.328C281.786 74.784 282.098 74.024 282.098 73.048C282.098 72.056 281.786 71.296 281.162 70.768C280.538 70.24 279.634 69.976 278.45 69.976H275.33V76.12ZM287.897 85V82.984H292.145V69.976H287.897V67.96H298.457V69.976H294.209V82.984H298.457V85H287.897ZM307.567 85.384C306.223 85.384 305.079 85.04 304.135 84.352C303.207 83.664 302.495 82.656 301.999 81.328C301.519 80 301.279 78.392 301.279 76.504C301.279 74.584 301.519 72.96 301.999 71.632C302.495 70.304 303.207 69.296 304.135 68.608C305.079 67.92 306.223 67.576 307.567 67.576C308.911 67.576 310.047 67.92 310.975 68.608C311.919 69.296 312.631 70.304 313.111 71.632C313.607 72.96 313.855 74.584 313.855 76.504C313.855 78.392 313.607 80 313.111 81.328C312.631 82.656 311.919 83.664 310.975 84.352C310.047 85.04 308.911 85.384 307.567 85.384ZM307.567 83.368C308.447 83.368 309.191 83.112 309.799 82.6C310.423 82.072 310.895 81.296 311.215 80.272C311.535 79.248 311.695 77.992 311.695 76.504C311.695 75.016 311.535 73.76 311.215 72.736C310.895 71.696 310.423 70.912 309.799 70.384C309.191 69.856 308.447 69.592 307.567 69.592C306.687 69.592 305.935 69.856 305.311 70.384C304.703 70.912 304.239 71.696 303.919 72.736C303.599 73.76 303.439 75.016 303.439 76.504C303.439 77.992 303.599 79.248 303.919 80.272C304.239 81.296 304.703 82.072 305.311 82.6C305.935 83.112 306.687 83.368 307.567 83.368Z" fill="white"/>
</g>
</svg>
