<svg width="550" height="650" viewBox="0 0 550 650" fill="none" xmlns="http://www.w3.org/2000/svg">
<g id="Frame 1">
<g id="Group 2">
<path id="b-general" d="M474 351V599H76V351H474Z" fill="#FFDBEB" stroke="black" stroke-width="2"/>
<path id="t-general" d="M234.213 471C234.026 470.426 233.779 469.912 233.472 469.457C233.171 468.997 232.81 468.605 232.39 468.281C231.975 467.957 231.503 467.71 230.975 467.54C230.446 467.369 229.867 467.284 229.236 467.284C228.202 467.284 227.262 467.551 226.415 468.085C225.569 468.619 224.895 469.406 224.395 470.446C223.895 471.486 223.645 472.761 223.645 474.273C223.645 475.784 223.898 477.06 224.404 478.099C224.909 479.139 225.594 479.926 226.458 480.46C227.321 480.994 228.293 481.261 229.373 481.261C230.373 481.261 231.253 481.048 232.015 480.622C232.782 480.19 233.378 479.582 233.804 478.798C234.236 478.009 234.452 477.08 234.452 476.011L235.1 476.148H229.85V474.273H236.498V476.148C236.498 477.585 236.191 478.835 235.577 479.898C234.969 480.96 234.128 481.784 233.054 482.369C231.986 482.949 230.759 483.239 229.373 483.239C227.827 483.239 226.469 482.875 225.299 482.148C224.134 481.42 223.225 480.386 222.571 479.045C221.924 477.705 221.6 476.114 221.6 474.273C221.6 472.892 221.784 471.651 222.154 470.548C222.529 469.44 223.057 468.497 223.739 467.719C224.421 466.94 225.228 466.344 226.159 465.929C227.091 465.514 228.117 465.307 229.236 465.307C230.157 465.307 231.015 465.446 231.81 465.724C232.611 465.997 233.324 466.386 233.949 466.892C234.58 467.392 235.105 467.991 235.526 468.69C235.946 469.384 236.236 470.153 236.395 471H234.213ZM240.118 483V465.545H250.652V467.42H242.231V473.318H250.106V475.193H242.231V481.125H250.788V483H240.118ZM268.302 465.545V483H266.257L256.745 469.295H256.575V483H254.461V465.545H256.507L266.052 479.284H266.223V465.545H268.302ZM272.532 483V465.545H283.066V467.42H274.645V473.318H282.52V475.193H274.645V481.125H283.202V483H272.532ZM286.875 483V465.545H292.773C294.137 465.545 295.256 465.778 296.131 466.244C297.006 466.705 297.654 467.338 298.074 468.145C298.495 468.952 298.705 469.869 298.705 470.898C298.705 471.926 298.495 472.838 298.074 473.634C297.654 474.429 297.009 475.054 296.14 475.509C295.27 475.957 294.159 476.182 292.807 476.182H288.034V474.273H292.739C293.671 474.273 294.421 474.136 294.989 473.864C295.563 473.591 295.978 473.205 296.233 472.705C296.495 472.199 296.625 471.597 296.625 470.898C296.625 470.199 296.495 469.588 296.233 469.065C295.972 468.543 295.554 468.139 294.98 467.855C294.407 467.565 293.648 467.42 292.705 467.42H288.989V483H286.875ZM295.091 475.159L299.387 483H296.932L292.705 475.159H295.091ZM302.943 483H300.727L307.136 465.545H309.318L315.727 483H313.511L308.295 468.307H308.159L302.943 483ZM303.761 476.182H312.693V478.057H303.761V476.182ZM318.446 483V465.545H320.559V481.125H328.673V483H318.446Z" fill="black"/>
</g>
<g id="Group 1">
<path id="b-sectorvip" d="M85 101H465C469.971 101 474 105.029 474 110V349H76V110C76 105.029 80.0294 101 85 101Z" fill="#AA9BC5" stroke="black" stroke-width="2"/>
<path id="t-sectorvip" d="M216.675 219.909C216.572 219.045 216.158 218.375 215.43 217.898C214.703 217.42 213.811 217.182 212.754 217.182C211.982 217.182 211.305 217.307 210.726 217.557C210.152 217.807 209.703 218.151 209.379 218.588C209.061 219.026 208.902 219.523 208.902 220.08C208.902 220.545 209.013 220.946 209.234 221.281C209.462 221.611 209.751 221.886 210.104 222.108C210.456 222.324 210.825 222.503 211.212 222.645C211.598 222.781 211.953 222.892 212.277 222.977L214.05 223.455C214.504 223.574 215.01 223.739 215.567 223.949C216.129 224.159 216.666 224.446 217.178 224.81C217.695 225.168 218.121 225.628 218.456 226.19C218.791 226.753 218.959 227.443 218.959 228.261C218.959 229.205 218.712 230.057 218.217 230.818C217.729 231.58 217.013 232.185 216.07 232.634C215.132 233.082 213.993 233.307 212.652 233.307C211.402 233.307 210.32 233.105 209.405 232.702C208.496 232.298 207.78 231.736 207.257 231.014C206.74 230.293 206.447 229.455 206.379 228.5H208.561C208.618 229.159 208.839 229.705 209.226 230.136C209.618 230.562 210.112 230.881 210.709 231.091C211.311 231.295 211.959 231.398 212.652 231.398C213.459 231.398 214.183 231.267 214.825 231.006C215.467 230.739 215.976 230.369 216.351 229.898C216.726 229.42 216.913 228.864 216.913 228.227C216.913 227.648 216.751 227.176 216.428 226.812C216.104 226.449 215.678 226.153 215.149 225.926C214.621 225.699 214.05 225.5 213.436 225.33L211.288 224.716C209.925 224.324 208.845 223.764 208.05 223.037C207.254 222.31 206.857 221.358 206.857 220.182C206.857 219.205 207.121 218.352 207.649 217.625C208.183 216.892 208.899 216.324 209.797 215.92C210.7 215.511 211.709 215.307 212.822 215.307C213.947 215.307 214.947 215.509 215.822 215.912C216.697 216.31 217.391 216.855 217.902 217.548C218.419 218.241 218.692 219.028 218.72 219.909H216.675ZM222.434 233V215.545H232.968V217.42H224.548V223.318H232.423V225.193H224.548V231.125H233.104V233H222.434ZM250.823 221H248.71C248.585 220.392 248.366 219.858 248.053 219.398C247.746 218.938 247.371 218.551 246.928 218.239C246.491 217.92 246.005 217.682 245.471 217.523C244.937 217.364 244.38 217.284 243.8 217.284C242.744 217.284 241.786 217.551 240.928 218.085C240.076 218.619 239.397 219.406 238.891 220.446C238.391 221.486 238.141 222.761 238.141 224.273C238.141 225.784 238.391 227.06 238.891 228.099C239.397 229.139 240.076 229.926 240.928 230.46C241.786 230.994 242.744 231.261 243.8 231.261C244.38 231.261 244.937 231.182 245.471 231.023C246.005 230.864 246.491 230.628 246.928 230.315C247.371 229.997 247.746 229.608 248.053 229.148C248.366 228.682 248.585 228.148 248.71 227.545H250.823C250.664 228.437 250.374 229.236 249.954 229.94C249.533 230.645 249.011 231.244 248.386 231.739C247.761 232.227 247.059 232.599 246.281 232.855C245.508 233.111 244.681 233.239 243.8 233.239C242.312 233.239 240.988 232.875 239.829 232.148C238.67 231.42 237.758 230.386 237.093 229.045C236.428 227.705 236.096 226.114 236.096 224.273C236.096 222.432 236.428 220.841 237.093 219.5C237.758 218.159 238.67 217.125 239.829 216.398C240.988 215.67 242.312 215.307 243.8 215.307C244.681 215.307 245.508 215.435 246.281 215.69C247.059 215.946 247.761 216.321 248.386 216.815C249.011 217.304 249.533 217.901 249.954 218.605C250.374 219.304 250.664 220.102 250.823 221ZM253.284 217.42V215.545H266.375V217.42H260.886V233H258.773V217.42H253.284ZM283.638 224.273C283.638 226.114 283.305 227.705 282.641 229.045C281.976 230.386 281.064 231.42 279.905 232.148C278.746 232.875 277.422 233.239 275.933 233.239C274.445 233.239 273.121 232.875 271.962 232.148C270.803 231.42 269.891 230.386 269.226 229.045C268.561 227.705 268.229 226.114 268.229 224.273C268.229 222.432 268.561 220.841 269.226 219.5C269.891 218.159 270.803 217.125 271.962 216.398C273.121 215.67 274.445 215.307 275.933 215.307C277.422 215.307 278.746 215.67 279.905 216.398C281.064 217.125 281.976 218.159 282.641 219.5C283.305 220.841 283.638 222.432 283.638 224.273ZM281.592 224.273C281.592 222.761 281.339 221.486 280.834 220.446C280.334 219.406 279.655 218.619 278.797 218.085C277.945 217.551 276.99 217.284 275.933 217.284C274.876 217.284 273.919 217.551 273.061 218.085C272.209 218.619 271.53 219.406 271.024 220.446C270.524 221.486 270.274 222.761 270.274 224.273C270.274 225.784 270.524 227.06 271.024 228.099C271.53 229.139 272.209 229.926 273.061 230.46C273.919 230.994 274.876 231.261 275.933 231.261C276.99 231.261 277.945 230.994 278.797 230.46C279.655 229.926 280.334 229.139 280.834 228.099C281.339 227.06 281.592 225.784 281.592 224.273ZM287.192 233V215.545H293.089C294.453 215.545 295.572 215.778 296.447 216.244C297.322 216.705 297.97 217.338 298.391 218.145C298.811 218.952 299.021 219.869 299.021 220.898C299.021 221.926 298.811 222.838 298.391 223.634C297.97 224.429 297.325 225.054 296.456 225.509C295.587 225.957 294.476 226.182 293.124 226.182H288.351V224.273H293.055C293.987 224.273 294.737 224.136 295.305 223.864C295.879 223.591 296.294 223.205 296.55 222.705C296.811 222.199 296.942 221.597 296.942 220.898C296.942 220.199 296.811 219.588 296.55 219.065C296.288 218.543 295.871 218.139 295.297 217.855C294.723 217.565 293.964 217.42 293.021 217.42H289.305V233H287.192ZM295.408 225.159L299.703 233H297.249L293.021 225.159H295.408ZM310.009 215.545L315.191 230.239H315.396L320.577 215.545H322.793L316.384 233H314.202L307.793 215.545H310.009ZM327.626 215.545V233H325.512V215.545H327.626ZM331.864 233V215.545H337.761C339.131 215.545 340.25 215.793 341.119 216.287C341.994 216.776 342.642 217.438 343.062 218.273C343.483 219.108 343.693 220.04 343.693 221.068C343.693 222.097 343.483 223.031 343.062 223.872C342.648 224.713 342.006 225.384 341.136 225.884C340.267 226.378 339.153 226.625 337.795 226.625H333.568V224.75H337.727C338.665 224.75 339.418 224.588 339.986 224.264C340.554 223.94 340.966 223.503 341.222 222.952C341.483 222.395 341.614 221.767 341.614 221.068C341.614 220.369 341.483 219.744 341.222 219.193C340.966 218.642 340.551 218.21 339.977 217.898C339.403 217.58 338.642 217.42 337.693 217.42H333.977V233H331.864Z" fill="black"/>
</g>
<g id="Group 3">
<path id="b-escenario" d="M175 51H375C388.255 51 399 61.7452 399 75V149H151V75C151 61.7452 161.745 51 175 51Z" fill="#353535" stroke="black" stroke-width="2"/>
<path id="t-escenario" opacity="0.5" d="M209.25 108V90.5455H219.784V92.4205H211.364V98.3182H219.239V100.193H211.364V106.125H219.921V108H209.25ZM233.14 94.9091C233.037 94.0455 232.623 93.375 231.895 92.8977C231.168 92.4205 230.276 92.1818 229.219 92.1818C228.446 92.1818 227.77 92.3068 227.191 92.5568C226.617 92.8068 226.168 93.1506 225.844 93.5881C225.526 94.0256 225.367 94.5227 225.367 95.0795C225.367 95.5455 225.478 95.946 225.699 96.2812C225.926 96.6108 226.216 96.8864 226.569 97.108C226.921 97.3239 227.29 97.5028 227.676 97.6449C228.063 97.7812 228.418 97.892 228.742 97.9773L230.515 98.4545C230.969 98.5739 231.475 98.7386 232.032 98.9489C232.594 99.1591 233.131 99.446 233.642 99.8097C234.159 100.168 234.586 100.628 234.921 101.19C235.256 101.753 235.424 102.443 235.424 103.261C235.424 104.205 235.176 105.057 234.682 105.818C234.194 106.58 233.478 107.185 232.534 107.634C231.597 108.082 230.458 108.307 229.117 108.307C227.867 108.307 226.784 108.105 225.87 107.702C224.961 107.298 224.245 106.736 223.722 106.014C223.205 105.293 222.912 104.455 222.844 103.5H225.026C225.083 104.159 225.304 104.705 225.691 105.136C226.083 105.562 226.577 105.881 227.174 106.091C227.776 106.295 228.424 106.398 229.117 106.398C229.924 106.398 230.648 106.267 231.29 106.006C231.932 105.739 232.441 105.369 232.816 104.898C233.191 104.42 233.378 103.864 233.378 103.227C233.378 102.648 233.216 102.176 232.892 101.812C232.569 101.449 232.142 101.153 231.614 100.926C231.086 100.699 230.515 100.5 229.901 100.33L227.753 99.7159C226.39 99.3239 225.31 98.7642 224.515 98.0369C223.719 97.3097 223.321 96.358 223.321 95.1818C223.321 94.2045 223.586 93.3523 224.114 92.625C224.648 91.892 225.364 91.3239 226.262 90.9205C227.165 90.5114 228.174 90.3068 229.287 90.3068C230.412 90.3068 231.412 90.5085 232.287 90.9119C233.162 91.3097 233.855 91.8551 234.367 92.5483C234.884 93.2415 235.157 94.0284 235.185 94.9091H233.14ZM252.944 96H250.831C250.706 95.392 250.487 94.858 250.174 94.3977C249.868 93.9375 249.493 93.5511 249.049 93.2386C248.612 92.9205 248.126 92.6818 247.592 92.5227C247.058 92.3636 246.501 92.2841 245.922 92.2841C244.865 92.2841 243.907 92.5511 243.049 93.0852C242.197 93.6193 241.518 94.4062 241.012 95.446C240.512 96.4858 240.262 97.7614 240.262 99.2727C240.262 100.784 240.512 102.06 241.012 103.099C241.518 104.139 242.197 104.926 243.049 105.46C243.907 105.994 244.865 106.261 245.922 106.261C246.501 106.261 247.058 106.182 247.592 106.023C248.126 105.864 248.612 105.628 249.049 105.315C249.493 104.997 249.868 104.608 250.174 104.148C250.487 103.682 250.706 103.148 250.831 102.545H252.944C252.785 103.437 252.495 104.236 252.075 104.94C251.654 105.645 251.132 106.244 250.507 106.739C249.882 107.227 249.18 107.599 248.402 107.855C247.629 108.111 246.802 108.239 245.922 108.239C244.433 108.239 243.109 107.875 241.95 107.148C240.791 106.42 239.879 105.386 239.214 104.045C238.549 102.705 238.217 101.114 238.217 99.2727C238.217 97.4318 238.549 95.8409 239.214 94.5C239.879 93.1591 240.791 92.125 241.95 91.3977C243.109 90.6705 244.433 90.3068 245.922 90.3068C246.802 90.3068 247.629 90.4347 248.402 90.6903C249.18 90.946 249.882 91.321 250.507 91.8153C251.132 92.304 251.654 92.9006 252.075 93.6051C252.495 94.304 252.785 95.1023 252.944 96ZM256.36 108V90.5455H266.894V92.4205H258.473V98.3182H266.348V100.193H258.473V106.125H267.03V108H256.36ZM284.544 90.5455V108H282.499L272.988 94.2955H272.817V108H270.703V90.5455H272.749L282.294 104.284H282.465V90.5455H284.544ZM289.49 108H287.274L293.683 90.5455H295.865L302.274 108H300.058L294.842 93.3068H294.706L289.49 108ZM290.308 101.182H299.24V103.057H290.308V101.182ZM304.993 108V90.5455H310.89C312.254 90.5455 313.373 90.7784 314.248 91.2443C315.123 91.7045 315.771 92.3381 316.191 93.1449C316.612 93.9517 316.822 94.8693 316.822 95.8977C316.822 96.9261 316.612 97.8381 316.191 98.6335C315.771 99.429 315.126 100.054 314.257 100.509C313.387 100.957 312.277 101.182 310.924 101.182H306.152V99.2727H310.856C311.788 99.2727 312.538 99.1364 313.106 98.8636C313.68 98.5909 314.095 98.2045 314.35 97.7045C314.612 97.1989 314.743 96.5966 314.743 95.8977C314.743 95.1989 314.612 94.5881 314.35 94.0653C314.089 93.5426 313.672 93.1392 313.098 92.8551C312.524 92.5653 311.765 92.4205 310.822 92.4205H307.106V108H304.993ZM313.208 100.159L317.504 108H315.049L310.822 100.159H313.208ZM322.458 90.5455V108H320.344V90.5455H322.458ZM341.423 99.2727C341.423 101.114 341.091 102.705 340.426 104.045C339.761 105.386 338.849 106.42 337.69 107.148C336.531 107.875 335.207 108.239 333.718 108.239C332.23 108.239 330.906 107.875 329.747 107.148C328.588 106.42 327.676 105.386 327.011 104.045C326.346 102.705 326.014 101.114 326.014 99.2727C326.014 97.4318 326.346 95.8409 327.011 94.5C327.676 93.1591 328.588 92.125 329.747 91.3977C330.906 90.6705 332.23 90.3068 333.718 90.3068C335.207 90.3068 336.531 90.6705 337.69 91.3977C338.849 92.125 339.761 93.1591 340.426 94.5C341.091 95.8409 341.423 97.4318 341.423 99.2727ZM339.377 99.2727C339.377 97.7614 339.125 96.4858 338.619 95.446C338.119 94.4062 337.44 93.6193 336.582 93.0852C335.73 92.5511 334.775 92.2841 333.718 92.2841C332.662 92.2841 331.704 92.5511 330.846 93.0852C329.994 93.6193 329.315 94.4062 328.809 95.446C328.309 96.4858 328.059 97.7614 328.059 99.2727C328.059 100.784 328.309 102.06 328.809 103.099C329.315 104.139 329.994 104.926 330.846 105.46C331.704 105.994 332.662 106.261 333.718 106.261C334.775 106.261 335.73 105.994 336.582 105.46C337.44 104.926 338.119 104.139 338.619 103.099C339.125 102.06 339.377 100.784 339.377 99.2727Z" fill="white"/>
</g>
</g>
</svg>
